<?xml version="1.0" encoding="UTF-8" standalone="no" ?>
<!DOCTYPE svg PUBLIC "-//W3C//DTD SVG 1.1//EN" "http://www.w3.org/Graphics/SVG/1.1/DTD/svg11.dtd">
<svg xmlns="http://www.w3.org/2000/svg" xmlns:xlink="http://www.w3.org/1999/xlink" version="1.1" width="1080" height="1080" viewBox="0 0 1080 1080" xml:space="preserve">
<desc>Created with Fabric.js 5.2.4</desc>
<defs>
</defs>
<g transform="matrix(1 0 0 1 540 540)" id="e800aca1-7835-4034-b34e-2b3917787c96"  >
<rect style="stroke: none; stroke-width: 1; stroke-dasharray: none; stroke-linecap: butt; stroke-dashoffset: 0; stroke-linejoin: miter; stroke-miterlimit: 4; fill: rgb(255,255,255); fill-rule: nonzero; opacity: 1; visibility: hidden;" vector-effect="non-scaling-stroke"  x="-540" y="-540" rx="0" ry="0" width="1080" height="1080" />
</g>
<g transform="matrix(1 0 0 1 540 540)" id="fc2673d1-fc77-4994-804e-b90b939b46a2"  >
</g>
<g transform="matrix(1.34 0 0 1.34 538.71 538.71)"  >
<g style="" vector-effect="non-scaling-stroke"   >
		<g transform="matrix(1.65 0 0 1.65 47.34 0)"  >
<path style="stroke: none; stroke-width: 1; stroke-dasharray: none; stroke-linecap: butt; stroke-dashoffset: 0; stroke-linejoin: miter; stroke-miterlimit: 4; fill: rgb(0,0,0); fill-rule: nonzero; opacity: 1;" vector-effect="non-scaling-stroke"  transform=" translate(-270.96, -242.28)" d="M 360.342 216.266 L 219.373 113.882 C 209.59 106.77600000000001 196.64999999999998 105.76100000000001 185.875 111.25200000000001 C 175.10399999999998 116.742 168.319 127.811 168.319 139.90200000000002 L 168.319 344.67 C 168.319 356.762 175.10299999999998 367.82800000000003 185.875 373.31600000000003 C 190.485 375.66400000000004 195.486 376.822 200.475 376.822 C 207.141 376.822 213.77599999999998 374.752 219.373 370.684 L 360.342 268.30100000000004 C 368.67199999999997 262.254 373.59799999999996 252.58200000000005 373.59799999999996 242.28300000000004 C 373.598 231.988 368.672 222.312 360.342 216.266 z" stroke-linecap="round" />
</g>
		<g transform="matrix(1.65 0 0 1.65 0 0)"  >
<path style="stroke: none; stroke-width: 1; stroke-dasharray: none; stroke-linecap: butt; stroke-dashoffset: 0; stroke-linejoin: miter; stroke-miterlimit: 4; fill: rgb(0,0,0); fill-rule: nonzero; opacity: 1;" vector-effect="non-scaling-stroke"  transform=" translate(-242.28, -242.28)" d="M 242.285 0 C 108.688 0 0.004 108.689 0.004 242.283 C 0.004 375.875 108.69000000000001 484.566 242.285 484.566 C 375.879 484.566 484.563 375.875 484.563 242.283 C 484.562 108.689 375.881 0 242.285 0 z M 242.285 425.027 C 141.52100000000002 425.027 59.541 343.048 59.541 242.283 C 59.541 141.517 141.52100000000002 59.541 242.285 59.541 C 343.049 59.541 425.03 141.517 425.03 242.283 C 425.029 343.049 343.049 425.027 242.285 425.027 z" stroke-linecap="round" />
</g>
</g>
</g>
</svg>